<?xml version="1.0" encoding="UTF-8" standalone="no"?>
<!-- Created with Inkscape (http://www.inkscape.org/) -->

<svg
   xmlns:dc="http://purl.org/dc/elements/1.1/"
   xmlns:cc="http://creativecommons.org/ns#"
   xmlns:rdf="http://www.w3.org/1999/02/22-rdf-syntax-ns#"
   xmlns:svg="http://www.w3.org/2000/svg"
   xmlns="http://www.w3.org/2000/svg"
   xmlns:sodipodi="http://sodipodi.sourceforge.net/DTD/sodipodi-0.dtd"
   xmlns:inkscape="http://www.inkscape.org/namespaces/inkscape"
   width="1207"
   height="117.8868"
   viewBox="0 0 319.35208 31.190882"
   version="1.1"
   id="svg8"
   inkscape:version="0.92.1 r15371"
   sodipodi:docname="Indivisible logo.svg">
  <defs
     id="defs2" />
  <sodipodi:namedview
     id="base"
     pagecolor="#ffffff"
     bordercolor="#666666"
     borderopacity="1.0"
     inkscape:pageopacity="0.0"
     inkscape:pageshadow="2"
     inkscape:zoom="1.1930406"
     inkscape:cx="603.5"
     inkscape:cy="58.948597"
     inkscape:document-units="px"
     inkscape:current-layer="layer1"
     showgrid="false"
     inkscape:pagecheckerboard="true"
     inkscape:showpageshadow="false"
     borderlayer="true"
     units="px"
     fit-margin-top="0"
     fit-margin-left="0"
     fit-margin-right="0"
     fit-margin-bottom="0"
     inkscape:window-width="1920"
     inkscape:window-height="1017"
     inkscape:window-x="-8"
     inkscape:window-y="-8"
     inkscape:window-maximized="1" />
  <metadata
     id="metadata5">
    <rdf:RDF>
      <cc:Work
         rdf:about="">
        <dc:format>image/svg+xml</dc:format>
        <dc:type
           rdf:resource="http://purl.org/dc/dcmitype/StillImage" />
        <dc:title></dc:title>
      </cc:Work>
    </rdf:RDF>
  </metadata>
  <g
     inkscape:label="Layer 1"
     inkscape:groupmode="layer"
     id="layer1"
     transform="translate(94.089456,-174.83227)">
    <path
       style="fill:#000000;stroke-width:0.26458332"
       d="m -93.913067,206.02462 -0.176389,-30.97623 h 5.291667 v 30.95625 z m 19.402777,-30.97623 h 5.249372 l 16.446462,22.05643 v -22.05643 h 5.295931 l -0.13656,30.97643 -5.105527,-0.002 -16.325723,-21.95346 -0.1381,21.93494 h -5.285861 z m 41.207214,30.80027 -0.196797,-30.80027 h 7.630594 c 8.562411,0 10.182637,0.23197 13.353089,1.91174 6.3401148,3.35911 9.3970312,11.54181 6.9725192,18.66391 -1.6215836,4.76347 -5.4763322,8.30391 -10.6259942,9.75957 -1.277197,0.36102 -3.087619,0.46957 -9.262057,0.55529 -4.221006,0.0586 -7.763116,0.018 -7.871354,-0.0902 z m 14.769713,-4.89411 c 4.389134,-0.80402 7.607311,-4.17541 8.342339,-8.73951 0.6821117,-4.23553 -1.389168,-8.8683 -4.877048,-10.90834 -2.107637,-1.23274 -3.612701,-1.49581 -8.557948,-1.49581 h -4.582187 v 21.43125 h 4.052449 c 2.228847,0 4.758925,-0.12941 5.622395,-0.28759 z M 6.981376,175.04839 h 5.291667 v 30.95625 H 6.981376 Z m 15.72586,-0.21273 5.563438,0.0314 9.406853,24.78534 9.525262,-24.77835 5.510056,-0.0462 -12.457853,31.1768 h -5.400733 z m 40.365806,0.21273 h 5.291667 v 30.95625 h -5.291667 z m 24.601861,30.45884 c -0.948301,-0.25607 -2.410992,-0.78001 -3.250428,-1.16432 -1.692971,-0.77507 -4.682683,-2.78301 -4.682683,-3.14498 0,-0.12766 0.479454,-1.1857 1.065453,-2.3512 l 1.065454,-2.11908 1.680739,1.19935 c 1.783932,1.27299 3.858903,2.28662 5.690401,2.7798 1.470655,0.396 4.747335,0.38269 6.107462,-0.0248 1.553438,-0.46542 2.647014,-1.79609 2.645751,-3.21937 -0.0021,-2.4075 -1.615114,-3.56094 -7.275052,-5.20237 -6.882767,-1.99606 -9.306562,-4.40643 -9.236511,-9.18534 0.06013,-4.10199 3.15718,-7.11189 8.31047,-8.07661 1.858449,-0.34791 6.019308,-0.12354 8.069791,0.43515 1.791737,0.4882 5.02581,1.91334 5.42013,2.38845 0.1791,0.21581 -0.0658,0.98829 -0.78441,2.4743 -0.57465,1.18829 -1.09186,2.16053 -1.14936,2.16053 -0.0575,0 -1.00456,-0.41584 -2.104581,-0.92408 -6.002171,-2.77317 -11.83282,-2.08679 -11.83282,1.39296 0,2.21953 1.364448,3.22534 6.759728,4.98296 4.637662,1.51082 6.375843,2.4064 7.847713,4.04348 1.38608,1.54166 1.93025,3.12029 1.88803,5.47718 -0.0696,3.88542 -2.89665,7.00295 -7.41849,8.18074 -2.091786,0.54484 -6.613724,0.49215 -8.816787,-0.10274 z m 28.491187,0.51636 -0.17639,-30.9752 h 5.29167 v 30.95625 z m 19.40278,-15.49707 v -15.47813 h 7.79219 c 7.91632,0 9.52959,0.14741 11.67424,1.06672 3.45435,1.4807 5.15532,5.29898 4.03153,9.04984 -0.40185,1.34128 -2.35299,3.51969 -3.53543,3.94727 -1.10206,0.39851 -1.15471,0.63674 -0.18493,0.83679 1.26066,0.26006 3.21729,1.71214 4.02657,2.98823 0.9528,1.50241 1.44561,3.72341 1.21384,5.47056 -0.52008,3.92056 -3.51441,6.52917 -8.40572,7.32292 -0.91483,0.14846 -5.02685,0.27082 -9.13781,0.27193 l -7.47448,0.002 z m 17.06524,9.92187 c 1.6748,-0.83764 2.51393,-2.05462 2.51393,-3.64592 0,-1.59989 -0.77515,-2.78181 -2.32508,-3.5452 -1.15778,-0.57024 -1.62933,-0.6202 -6.60461,-0.69973 l -5.35781,-0.0857 v 4.40905 4.40906 l 5.22552,-0.0901 c 4.95132,-0.0853 5.29492,-0.12478 6.54805,-0.75153 z m -1.59953,-12.99333 c 3.46084,-0.96084 4.03638,-5.55128 0.88714,-7.0758 -1.07265,-0.51926 -1.6012,-0.56837 -6.11763,-0.56837 h -4.94355 v 3.96875 3.96875 l 4.56406,-0.001 c 2.51023,-8.2e-4 5.03472,-0.13215 5.60998,-0.29185 z m 21.84054,-12.40667 h 5.29167 v 26.19375 h 13.22916 v 4.7625 h -18.52083 z m 29.63333,0 h 22.225 v 4.7625 h -16.93333 v 8.20209 h 15.08125 v 4.7625 h -15.08125 v 8.46666 h 17.4625 v 4.7625 h -22.75417 z"
       id="path4507"
       inkscape:connector-curvature="0"
       sodipodi:nodetypes="ccccccccccccccccccscscscccscsccscccccccccccccccccccccsccccccssscccssscssscccccccccscccccccccccscccccccccsscccccccccccccccccccccccccc" />
  </g>
</svg>
