<svg xmlns="http://www.w3.org/2000/svg" xmlns:xlink="http://www.w3.org/1999/xlink" width="67" height="33" viewBox="0 0 67 33"><defs><path id="dkafa" d="M61.542 49.95c-.127.003-.248.007-.38.007h-5.844V39.7h5.656v.006c2.457 0 4.992 1.514 4.992 5.098 0 3.5-2.013 4.953-4.424 5.145zm9.798-13.854a11.941 11.941 0 0 0-2.9-2.113c-1.814-1.036-3.95-1.648-6.299-1.737a8.698 8.698 0 0 0-.452-.013H46.415V64.35h8.896v-.005h.007v-6.912l6.56-.008a13.261 13.261 0 0 0 5.715-1.27 16.46 16.46 0 0 1 3.747-20.059z"/><path id="dkafb" d="M98.673 47.49a15.87 15.87 0 0 0-.125-1.29c-.03-.251-.052-.41-.052-.41v-.003h-11.15l-3.521-.002v.002h-1.02v7.482h5.641a7.863 7.863 0 1 1-1.323-10.9l.034.02 6.578-5.676c-6.152-6.038-15.92-6.308-22.395-.617 1.806 1.806 3.154 4.427 3.263 8.218.007.147.01.297.013.447l.002.043v.005c0 .086.006.17.006.257 0 4.925-2.83 9.09-7.03 11.089C70.357 61.408 75.867 65 82.204 65c6.327 0 11.83-3.58 14.598-8.82a.094.094 0 0 1 .003.019c.222-.407.419-.826.59-1.257a16.393 16.393 0 0 0 1.296-5.873 9.45 9.45 0 0 0 .023-.585c0-.317-.018-.66-.04-.993z"/><path id="dkafc" d="M74.624 45.066c0-.087-.005-.172-.006-.257v-.005l-.002-.043c-.002-.15-.006-.3-.013-.447-.109-3.791-1.457-6.413-3.263-8.218a16.46 16.46 0 0 0-3.747 20.059c4.201-2 7.03-6.164 7.03-11.089z"/><path id="dkafd" d="M32 32.312l.037 32.038h8.84l-.037-32.038z"/></defs><g><g transform="translate(-32 -32)"><g><use fill="#83bad8" xlink:href="#dkafa"/></g><g><use fill="#095aa5" xlink:href="#dkafb"/></g><g><use fill="#052147" xlink:href="#dkafc"/></g><g><use fill="#83bad8" xlink:href="#dkafd"/></g></g></g></svg>