<svg viewBox="0 0 100 100" xmlns="http://www.w3.org/2000/svg" aria-label="Movemental">
  <path d="M 50 22 A 28 28 0 0 1 69.799 30.201 L 61.314 38.686 A 16 16 0 0 0 50 34 Z" fill="#FCD9C4"/>
  <path d="M 50 10 A 40 40 0 0 1 78.284 21.716 L 69.799 30.201 A 28 28 0 0 0 50 22 Z" fill="#FF8B4D"/>
  <path d="M 50 0 A 50 50 0 0 1 85.355 14.645 L 78.284 21.716 A 40 40 0 0 0 50 10 Z" fill="#E94B1E"/>
  <path d="M 69.799 30.201 A 28 28 0 0 1 78 50 L 66 50 A 16 16 0 0 0 61.314 38.686 Z" fill="#E94B1E"/>
  <path d="M 78.284 21.716 A 40 40 0 0 1 90 50 L 78 50 A 28 28 0 0 0 69.799 30.201 Z" fill="#FCD9C4"/>
  <path d="M 85.355 14.645 A 50 50 0 0 1 100 50 L 90 50 A 40 40 0 0 0 78.284 21.716 Z" fill="#FF8B4D"/>
  <path d="M 78 50 A 28 28 0 0 1 69.799 69.799 L 61.314 61.314 A 16 16 0 0 0 66 50 Z" fill="#FF8B4D"/>
  <path d="M 90 50 A 40 40 0 0 1 78.284 78.284 L 69.799 69.799 A 28 28 0 0 0 78 50 Z" fill="#E94B1E"/>
  <path d="M 100 50 A 50 50 0 0 1 85.355 85.355 L 78.284 78.284 A 40 40 0 0 0 90 50 Z" fill="#FCD9C4"/>
  <path d="M 69.799 69.799 A 28 28 0 0 1 50 78 L 50 66 A 16 16 0 0 0 61.314 61.314 Z" fill="#FCD9C4"/>
  <path d="M 78.284 78.284 A 40 40 0 0 1 50 90 L 50 78 A 28 28 0 0 0 69.799 69.799 Z" fill="#E94B1E"/>
  <path d="M 85.355 85.355 A 50 50 0 0 1 50 100 L 50 90 A 40 40 0 0 0 78.284 78.284 Z" fill="#FF8B4D"/>
  <path d="M 50 78 A 28 28 0 0 1 30.201 69.799 L 38.686 61.314 A 16 16 0 0 0 50 66 Z" fill="#E94B1E"/>
  <path d="M 50 90 A 40 40 0 0 1 21.716 78.284 L 30.201 69.799 A 28 28 0 0 0 50 78 Z" fill="#FF8B4D"/>
  <path d="M 50 100 A 50 50 0 0 1 14.645 85.355 L 21.716 78.284 A 40 40 0 0 0 50 90 Z" fill="#FCD9C4"/>
  <path d="M 30.201 69.799 A 28 28 0 0 1 22 50 L 34 50 A 16 16 0 0 0 38.686 61.314 Z" fill="#FF8B4D"/>
  <path d="M 21.716 78.284 A 40 40 0 0 1 10 50 L 22 50 A 28 28 0 0 0 30.201 69.799 Z" fill="#FCD9C4"/>
  <path d="M 14.645 85.355 A 50 50 0 0 1 0 50 L 10 50 A 40 40 0 0 0 21.716 78.284 Z" fill="#E94B1E"/>
  <path d="M 22 50 A 28 28 0 0 1 30.201 30.201 L 38.686 38.686 A 16 16 0 0 0 34 50 Z" fill="#FCD9C4"/>
  <path d="M 10 50 A 40 40 0 0 1 21.716 21.716 L 30.201 30.201 A 28 28 0 0 0 22 50 Z" fill="#FF8B4D"/>
  <path d="M 0 50 A 50 50 0 0 1 14.645 14.645 L 21.716 21.716 A 40 40 0 0 0 10 50 Z" fill="#E94B1E"/>
  <path d="M 30.201 30.201 A 28 28 0 0 1 50 22 L 50 34 A 16 16 0 0 0 38.686 38.686 Z" fill="#E94B1E"/>
  <path d="M 21.716 21.716 A 40 40 0 0 1 50 10 L 50 22 A 28 28 0 0 0 30.201 30.201 Z" fill="#FCD9C4"/>
  <path d="M 14.645 14.645 A 50 50 0 0 1 50 0 L 50 10 A 40 40 0 0 0 21.716 21.716 Z" fill="#FF8B4D"/>
  <circle cx="50" cy="50" r="14" fill="#FFFFFF"/>
</svg>
